# xmcd
#
# Track frame offsets: 
#        150
#        12062
#        23958
#        38815
#        53618
#        65352
#        80471
#        97669
#        113545
#        125683
#        141503
#        155876
#        167220
#        184641
#        198992
#        215801
#        228655
#        244507
#        262839
#        275817
#        290284
#        303627
#
# Disc length: 4270 seconds
#
# Revision: 0
# Processed by: cddbd v1.5.2PL0 Copyright (c) Steve Scherf et al.
# Submitted via: ExactAudioCopy v1.0b3
#
DISCID=3810ac16
DTITLE=Various Artist - 101 Country Hits CD4-4
DYEAR=2009
DGENRE=Country
TTITLE0=Glen Campbell - Galveston
TTITLE1=Bobby Edwards - You're The Reason
TTITLE2=Don Gibson - Woman (Sensuous) Woman
TTITLE3=Cristy Lane - One Day At A Time
TTITLE4=Jerry Wallace - If You Leave Me Tonight I'll Cry
TTITLE5=Jessi Colter - I'm Not Lisa
TTITLE6=Don Williams - Heartbeat In The Darkness
TTITLE7=Crystal Gayle - I'll Get Over You
TTITLE8=George Jones - A Girl I Used To Know
TTITLE9=Kenny Rogers - The Gambler
TTITLE10=Tanya Tucker - Just Another Love
TTITLE11=Eddie Rabbitt - B-B-B-Burnin' Up With Love
TTITLE12=Marie Osmond and Dan Seals - Meet Me In Montana
TTITLE13=The Warratahs - Hands Of My Heart
TTITLE14=Gene Watson - Nothing Sure Looks Good On You
TTITLE15=Chris Ledoux - Cadillac Ranch
TTITLE16=Jan Cooper - If I Didn't Love You
TTITLE17=John Berry - Standing On The Edge Of Goodbye
TTITLE18=Barbara Mandrell - I Wish I Could Fall In Love Today
TTITLE19=Deana Carter - Did I Shave My Legs For This?
TTITLE20=T. Graham Brown - I Tell It Like It Is
TTITLE21=Tanya Tucker With Paul Davis And Paul  - I Won't Take Less Th
TTITLE21=an Your Love
EXTD=
EXTT0=
EXTT1=
EXTT2=
EXTT3=
EXTT4=
EXTT5=
EXTT6=
EXTT7=
EXTT8=
EXTT9=
EXTT10=
EXTT11=
EXTT12=
EXTT13=
EXTT14=
EXTT15=
EXTT16=
EXTT17=
EXTT18=
EXTT19=
EXTT20=
EXTT21=
PLAYORDER=
